# xmcd
#
# Track frame offsets:
#	150
#	20975
#	39612
#	65980
#	86642
#	108062
#	123720
#	141675
#	154912
#	172607
#	191455
#	210245
#	228425
#	247845
#	269362
#	286732
#
# Disc length: 4091
#
# Revision: 4
# Processed by: cddbd v1.5.1PL0 Copyright (c) Steve Scherf et al.
# Submitted via: ExactAudioCopy v0.95a5
# Normalized: r3:TSWAP
#
DISCID=e40ff910
DTITLE=Various Artist - SOUL BALLAD COLLECTION
DYEAR=1989
DGENRE=Soul
TTITLE0=MAURICE WHITE - I NEED YOU
TTITLE1=GREGORY ABBOTT - SHAKE YOU DOWN
TTITLE2=BILL WITHERS - WATCHING YOU WATCHING ME
TTITLE3=RAMSEY LEWIS and NANCY WILSON - THE TWO OF US
TTITLE4=PHILIP BAILEY - SHOW YOU THE WAY TO LOVE
TTITLE5=HAROLD MERVIN and THE BLUES NOTES - IF YOU DON'T KNOW ME BY NOW
TTITLE6=BILL WITHERS - JUST THE TWO OF US
TTITLE7=JOHNNY MATHIS and DENIECE WILLIAMS - TOO MUCH, TOO LITTLE, TOO LATE
TTITLE8=RAMSEY LEWIS and NANCY WILSON - MIDNIGHT RENDEZVOUS
TTITLE9=REGINA BELLE - SHOW ME THE WAY
TTITLE10=GREGORY ABBOTT - I GOT THE FEELIN'(IT'S OVER)
TTITLE11=MARVIN GAYE - SEXUAL HEALING
TTITLE12=PHILIP BAILEY - FOR EVERY HEART THAT'S BEEN BROKEN
TTITLE13=LUTHER VANDROSS(DUET WITHGREGORY HINES) - THERE'S NOTHING BETTER THAN LOVE
TTITLE14=MARVIN GAYE - DREAM OF A LIFETIME
TTITLE15=MANHATTANS - KISS AND SAY GOODBYE
EXTD=
EXTT0=
EXTT1=
EXTT2=
EXTT3=
EXTT4=
EXTT5=
EXTT6=
EXTT7=
EXTT8=
EXTT9=
EXTT10=
EXTT11=
EXTT12=
EXTT13=
EXTT14=
EXTT15=
PLAYORDER=
